<svg width="69" height="69" fill="none" xmlns="http://www.w3.org/2000/svg"><g filter="url(#filter0_d)"><circle cx="34.5" cy="33.5" r="26.687" stroke="#fff" stroke-width="1.626"/></g><g clip-path="url(#clip0)"><path d="M26.569 42.77c1.762-.38 2.796-2.437 2.298-4.493-.23-.99-.766-1.866-1.532-2.475-.766-.571-1.647-.8-2.528-.61-.843.191-1.571.762-1.992 1.638-.422.838-.537 1.866-.307 2.894.23.99.766 1.866 1.532 2.476a3.029 3.029 0 0 0 1.916.685c.191-.038.383-.076.613-.114zm.536-6.663a3.83 3.83 0 0 1 1.38 2.246c.42 1.904-.46 3.694-2.031 4.037-.728.152-1.532-.038-2.184-.533a3.83 3.83 0 0 1-1.379-2.247c-.191-.914-.115-1.866.268-2.628.383-.761.996-1.256 1.763-1.447.191-.038.344-.076.536-.076.536.038 1.15.229 1.647.648zm23.98-4.075c.04-.038.04-.076.04-.114v-.343l-.04-.038c0-.038-.038-.038-.076-.076l-.038-.038c-.038 0-.038-.038-.077-.038h-.191s-1.456.114-4.789-1.943c-.306-.19-.651-.419-.996-.609-3.141-2.056-6.704-4.38-10.573-.152-3.83-4.227-7.431-1.904-10.611.152-.345.229-.651.419-.996.61-3.256 2.094-4.712 1.98-4.75 1.98h-.192c-.038 0-.076.038-.115.038 0 0-.038 0-.038.038l-.077.076v.343c0 .038.039.076.039.114l.038.038.038.038c.039 0 2.375 1.904 4.444 3.694.153.152.383.114.536-.038.154-.153.115-.381-.038-.533-.804-.686-1.609-1.41-2.337-1.98 1.15.38 2.643.723 4.252.761.728 0 1.494-.114 2.222-.228.881-.153 1.724-.267 2.605-.19.843.075 1.954.647 2.912 1.104.919.419 1.609.761 2.107.761.498 0 1.187-.343 2.106-.761.996-.457 2.107-.99 2.912-1.105.843-.114 1.685.038 2.605.19.728.115 1.456.23 2.222.23 1.609-.039 3.064-.382 4.252-.762-1.724 1.447-4.022 3.427-5.057 4.57-1.762 1.941-5.286 3.198-9.002 3.198a16.02 16.02 0 0 1-4.712-.685c-.192-.077-.421.038-.498.266-.077.19.038.419.268.495 1.532.457 3.18.724 4.904.724 3.984 0 7.661-1.333 9.577-3.428 1.647-1.828 7.01-6.169 7.087-6.207-.039-.114 0-.114.038-.152-.038 0 0 0 0 0zm-6.933 1.219c-.69 0-1.34-.077-2.069-.19-.919-.153-1.838-.306-2.796-.191-.958.114-2.145.685-3.18 1.18-.69.343-1.455.686-1.762.686-.306 0-1.072-.381-1.762-.686-1.034-.495-2.222-1.066-3.18-1.18-.957-.114-1.915.038-2.796.19-.728.114-1.379.229-2.069.19-2.183-.038-4.175-.723-5.324-1.256.842-.229 2.145-.762 3.945-1.904.345-.19.652-.42.996-.648 3.295-2.132 6.36-4.112 9.884.038.153.19.46.19.574 0 3.525-4.15 6.628-2.17 9.884-.038.345.229.651.42.996.648 1.8 1.142 3.103 1.637 3.946 1.904-1.111.495-3.103 1.218-5.287 1.257z" fill="#fff"/></g><defs><filter id="filter0_d" x=".498" y=".581" width="68.005" height="68.005" filterUnits="userSpaceOnUse" color-interpolation-filters="sRGB"><feFlood flood-opacity="0" result="BackgroundImageFix"/><feColorMatrix in="SourceAlpha" values="0 0 0 0 0 0 0 0 0 0 0 0 0 0 0 0 0 0 127 0"/><feOffset dy="1.084"/><feGaussianBlur stdDeviation="3.251"/><feColorMatrix values="0 0 0 0 0.3 0 0 0 0 0.3 0 0 0 0 0.3 0 0 0 0.4 0"/><feBlend mode="multiply" in2="BackgroundImageFix" result="effect1_dropShadow"/><feBlend in="SourceGraphic" in2="effect1_dropShadow" result="shape"/></filter><clipPath id="clip0"><path fill="#fff" transform="translate(17.566 26.32)" d="M0 0h33.596v16.527H0z"/></clipPath></defs></svg>