<svg width="135" height="69" fill="none" xmlns="http://www.w3.org/2000/svg"><path d="M2.864 1.395v12.708h15.125V1.395c0-.93.484-1.395 1.452-1.395.967 0 1.452.465 1.452 1.395v30.96c0 .93-.485 1.395-1.452 1.395-.968 0-1.452-.465-1.452-1.395v-15.5H2.864v15.5c0 .93-.484 1.395-1.452 1.395C.47 33.75 0 33.285 0 32.355V1.395C0 .465.47 0 1.412 0c.968 0 1.452.465 1.452 1.395zm24.678 9.258c-1.426 1.413-2.152 3.102-2.178 5.066v4.636h8.994c1.694 0 3.133-.576 4.316-1.728 1.21-1.127 1.815-2.527 1.815-4.204 0-1.65-.604-3.05-1.815-4.202-1.183-1.178-2.622-1.768-4.316-1.768h-1.653c-2.017.052-3.74.786-5.163 2.2zm3.952 23.097a1.11 1.11 0 0 1-.16-.02 9.81 9.81 0 0 1-.323-.058C28.67 33.54 26.666 32.65 25 31c-1.614-1.572-2.448-3.536-2.501-5.893v-9.899c.162-2.619 1.222-4.845 3.186-6.677 1.989-1.86 4.329-2.828 7.019-2.907h1.613l.04.04v-.04c2.473 0 4.598.865 6.373 2.593 1.775 1.701 2.662 3.77 2.662 6.205 0 2.41-.887 4.478-2.662 6.206-1.748 1.703-3.846 2.554-6.292 2.554h-9.075v1.807c.053 1.65.657 3.038 1.814 4.165 1.183 1.151 2.622 1.727 4.316 1.727.135.028.269.053.404.08h7.14c.967 0 1.45.458 1.45 1.374 0 .943-.483 1.414-1.45 1.414h-7.544zM64.096 7.982c.126.208.19.432.19.667 0 .916-.454 1.375-1.363 1.375-.353 0-.655-.117-.907-.354-1.01-.812-2.17-1.217-3.481-1.217h-1.628c-1.891.105-3.494.865-4.805 2.277-1.286 1.335-1.955 3-2.005 4.989v16.617c0 .943-.454 1.414-1.362 1.414-.883 0-1.324-.471-1.324-1.414V7.51c0-.943.44-1.414 1.324-1.414.908 0 1.362.471 1.362 1.414v1.296c1.866-2.016 4.124-3.077 6.773-3.181h1.74c1.968.052 3.67.668 5.109 1.845l.113.119c.05.053.106.104.17.157.062.052.12.104.17.157l-.076.079zm5.464 17.811h.04v.04c0 1.633.591 3.076 1.775 4.331 1.263 1.177 2.714 1.765 4.356 1.765v-.04h1.815c1.962-.106 3.63-.868 5.002-2.286 1.37-1.363 2.082-3.087 2.137-5.173v-9.825c0-1.684-.605-3.114-1.815-4.289-1.184-1.202-2.621-1.804-4.316-1.804H76.82c-2.017.106-3.725.882-5.122 2.324-1.372 1.364-2.086 3.062-2.139 5.092v9.865zm18.03-11.79V24.31c0 .053-.015.094-.041.12h.04c-.055 2.86-1.049 5.253-2.984 7.178-1.937 2.005-4.29 3.061-7.059 3.167H75.65c-2.34 0-4.37-.814-6.09-2.445V44.4c0 .935-.484 1.404-1.453 1.404-.94 0-1.41-.47-1.41-1.404V7.55c0-.963.47-1.444 1.41-1.444.969 0 1.452.48 1.452 1.444v1.323c1.99-2.06 4.397-3.142 7.22-3.248h2.139c.026 0 .053.006.081.02.026.014.052.02.08.02h.324a.17.17 0 0 1 .12.04h.202c.053 0 .093.013.121.04h.242c.026.026.053.04.08.04h.122c.026.026.052.04.08.04.026 0 .047.006.06.02.013.014.033.02.061.02h.12c.054.026.094.04.122.04.027 0 .053.014.08.04h.122c0 .027.013.04.04.04h.04c.053 0 .094.015.122.041.026 0 .052.014.08.04h.121l.04.04h.04c.027.026.067.04.122.04.053 0 .093.013.12.04.027 0 .054.013.082.04.026 0 .046.007.06.02.012.014.033.02.061.02.026.026.052.04.08.04l.04.04h.04c.027 0 .048.006.061.02.012.014.033.02.061.02.026 0 .052.015.08.04.027 0 .047.007.061.02.013.014.033.02.06.02.027.027.053.041.081.041.053.026.093.04.122.04 0 .026.026.04.08.04 0 .026.026.054.08.08.027.026.053.04.081.04a.31.31 0 0 0 .12.04l.042.04c.052.055.092.08.12.08.027.027.053.041.08.041l.042.04c.026 0 .053.014.08.04.053.054.141.114.263.18.12.067.262.155.423.26 0 .055.053.095.161.122a.324.324 0 0 0 .081.06.415.415 0 0 1 .08.06v.04c.054.052.094.08.121.08l.041.04.12.12.042.04c0 .053.04.08.12.08v.041h.04l.122.12h.04c0 .08.026.12.081.12l.04.04.12.121.04.04c0 .08.027.12.082.12l.04.04c0 .08.04.12.12.12v.04c.082.133.122.173.122.121h.04c0 .052.027.106.082.16l.04.04c.053.053.08.093.08.12l.04.04c0 .028.041.081.122.161 0 .026.012.053.04.08.026.027.04.053.04.08a.435.435 0 0 0 .06.1l.061.061c.295.507.55 1.015.767 1.522.214.509.375 1.03.484 1.564v.04c0 .081.012.134.04.16v.241c0 .028.007.06.02.1.012.04.02.075.02.1 0 .135.013.215.041.241v.2h.04zm8.255-3.35c-1.425 1.413-2.152 3.102-2.178 5.066v4.636h8.995c1.694 0 3.131-.576 4.315-1.728 1.21-1.127 1.815-2.527 1.815-4.204 0-1.65-.605-3.05-1.815-4.202-1.184-1.178-2.621-1.768-4.315-1.768h-1.655c-2.016.052-3.738.786-5.162 2.2zm3.953 23.097c-.028 0-.08-.006-.161-.02a10.31 10.31 0 0 1-.323-.058c-2.34-.132-4.344-1.022-6.01-2.671-1.613-1.572-2.448-3.536-2.5-5.893v-9.899c.16-2.619 1.222-4.845 3.186-6.677 1.989-1.86 4.328-2.828 7.017-2.907h1.614l.041.04v-.04c2.473 0 4.598.865 6.373 2.593 1.774 1.701 2.662 3.77 2.662 6.205 0 2.41-.888 4.478-2.662 6.206-1.748 1.703-3.846 2.554-6.293 2.554h-9.075v1.807c.053 1.65.658 3.038 1.815 4.165 1.182 1.151 2.622 1.727 4.316 1.727.133.028.268.053.403.08h7.139c.969 0 1.452.458 1.452 1.374 0 .943-.483 1.414-1.452 1.414h-7.542zm27.054-15.068c2.15.201 3.994 1.03 5.526 2.487 1.532 1.43 2.406 3.152 2.622 5.16h-.122.122c-.216 2.16-1.17 3.931-2.864 5.312-1.642 1.38-3.671 2.071-6.091 2.071h-.161a.333.333 0 0 1-.121.038h-10.204c-.968 0-1.452-.452-1.452-1.356 0-.904.484-1.356 1.452-1.356h10.406c.806 0 1.559-.106 2.258-.32a6.033 6.033 0 0 0 1.876-.942c.55-.415 1-.904 1.351-1.47a4.625 4.625 0 0 0 .645-1.939c-.215-1.357-.826-2.493-1.835-3.409-1.008-.916-2.238-1.438-3.69-1.564l-6.695-.678v-.037c-1.614-.05-2.973-.603-4.074-1.658-1.077-1.055-1.641-2.322-1.694-3.805v-.188c.053-2.234.927-4.08 2.622-5.536 1.719-1.456 3.776-2.21 6.17-2.26h7.785c.94 0 1.411.452 1.411 1.356 0 .878-.471 1.318-1.411 1.318h-7.785a7.474 7.474 0 0 0-2.279.415c-.714.25-1.33.603-1.855 1.054a5.414 5.414 0 0 0-1.27 1.6 4.707 4.707 0 0 0-.525 2.053c0 .779.275 1.445.827 1.997.551.553 1.243.866 2.078.941l.201.038h.041l6.735.678z" fill="#fff"/><path d="M25.807 49.3c1.365-1.454 2.048-3.213 2.048-5.275 0-2.037-.683-3.782-2.048-5.236-1.366-1.455-3.015-2.183-4.952-2.183v-.039h-6.962v14.915h6.962c1.937 0 3.586-.726 4.952-2.182zM20.93 33.75h.149c2.63.079 4.852 1.125 6.664 3.134 1.862 1.984 2.793 4.364 2.793 7.141 0 2.75-.92 5.144-2.755 7.18-1.837 1.983-4.035 3.015-6.59 3.094l-.373.08h-6.925v12.496c0 .953-.447 1.429-1.34 1.429-.87 0-1.303-.476-1.303-1.429V35.178c0-.951.433-1.428 1.303-1.428h8.377zm20.819 31.76c1.91 0 3.548-.72 4.914-2.163 1.341-1.416 2.035-3.147 2.085-5.192v-4.563h-8.265v-.04h-.037c-1.564 0-2.904.59-4.021 1.77-1.093 1.155-1.638 2.558-1.638 4.21 0 1.6.545 3.017 1.638 4.248 1.166 1.155 2.506 1.73 4.02 1.73h.038v-.039h1.229v.04h.037zm-.15 2.794h-1.153c-2.234 0-4.196-.852-5.883-2.558-1.614-1.782-2.42-3.855-2.42-6.214 0-2.44.793-4.497 2.383-6.177 1.612-1.703 3.561-2.582 5.845-2.635h8.377v-2.203c-.05-1.653-.62-2.962-1.713-3.932-1.091-1.023-2.407-1.535-3.946-1.535-.05 0-.1-.007-.149-.019l-.223-.06h-6.59c-.894 0-1.34-.47-1.34-1.415 0-.919.446-1.377 1.34-1.377h6.962c.025 0 .074.006.15.02.074.013.173.033.297.059 2.01.132 3.723.826 5.138 2.085 1.463 1.258 2.345 2.897 2.644 4.915.074.21.11.382.11.512v18.685c0 .944-.446 1.416-1.339 1.416-.894 0-1.34-.472-1.34-1.416v-1.337c-1.913 2.124-4.245 3.186-7 3.186H41.6zm19.18-8.372v-16.74h-4.692c-.962 0-1.444-.464-1.444-1.389 0-.951.482-1.428 1.444-1.428h4.692v-5.198c0-.951.48-1.427 1.444-1.427.962 0 1.443.476 1.443 1.427v5.198h7.459c.935 0 1.403.477 1.403 1.428 0 .925-.468 1.389-1.403 1.389h-7.459v16.66h.04v.041c0 1.614.562 2.935 1.684 3.967 1.204 1.031 2.58 1.561 4.13 1.587h4.532c.989 0 1.484.476 1.484 1.428s-.495 1.429-1.484 1.429h-4.37a.308.308 0 0 1-.121-.04c-2.273-.027-4.291-.793-6.055-2.302-1.658-1.454-2.555-3.358-2.687-5.712-.028-.052-.04-.159-.04-.318zm38.041-11.34zM80.81 59.715c.053 1.625.658 2.992 1.816 4.1 1.262 1.136 2.702 1.703 4.316 1.703h2.862c1.695 0 3.133-.567 4.317-1.703 1.21-1.16 1.815-2.552 1.815-4.178.026-.876.51-1.315 1.452-1.315.94 0 1.424.439 1.451 1.315v.116c-.027 2.322-.927 4.334-2.701 6.036-1.723 1.65-3.806 2.49-6.253 2.515H86.86c-2.42-.053-4.49-.865-6.211-2.438-1.722-1.573-2.621-3.52-2.703-5.841V49.927c.027-2.631 1.02-4.887 2.985-6.77 1.936-1.857 4.302-2.849 7.099-2.978h2.178c.026.024.067.038.121.038h.362c.027 0 .054.013.082.039h.241a.317.317 0 0 0 .121.038h.122c.026 0 .053.014.08.04h.121c.053 0 .082.013.082.038h.12c.027 0 .046.006.06.019.014.014.033.02.06.02h.122c0 .025.04.038.121.038.027.026.052.039.08.039.027 0 .047.006.061.02.012.013.033.018.061.018h.08c.053 0 .093.014.122.04.026.024.052.038.08.038.026.026.067.039.121.039l.04.038h.04c.082 0 .134.013.162.04h.08c0 .051.04.077.122.077h.04c.052.051.093.077.122.077a.18.18 0 0 1 .12.038.32.32 0 0 0 .121.04h.08c0 .051.04.077.122.077.026 0 .053.013.08.038a.32.32 0 0 0 .122.04l.04.037c.052.053.093.078.121.078.026 0 .052.013.08.039a.316.316 0 0 0 .121.038l.041.039c.052.052.107.078.16.078l.042.038.04.039c.026 0 .053.014.08.038.027 0 .053.014.082.04 0 .025.025.051.08.077.026.025.053.038.08.038 0-.024.04 0 .122.078l.04.038c.026 0 .047.014.06.039a.063.063 0 0 0 .061.039c.027.025.052.038.08.038 0 .053.04.078.122.078l.04.038.121.117h.04l.121.115v.039h.04l.121.116.04.039c.054.05.094.078.122.078l.04.038.122.116v.038h.04l.12.117h.041c0 .025.04.078.12.155 0 .025.041.077.122.155.026.024.046.05.06.077.013.025.033.05.06.078l.042.038.12.116c.053.05.093.102.122.155.025.05.066.102.12.155v.038h.04l.081.155h.04c.027.103.054.154.08.154v.039l.122.116v.039a.29.29 0 0 1 .061.078c.012.025.032.05.06.077 0 .05.04.116.121.193 0-.077.027-.013.081.194.026.05.06.089.101.116.04.025.06.064.06.116 0 .05.013.089.04.114 0 .053.013.091.041.117.026.027.04.051.04.077 0-.077.027-.012.08.193.027.027.042.053.042.077 0 .053.012.091.04.117.026.027.04.052.04.077 0 .052.012.09.04.116.027.208.108.478.242.813.053.206.087.375.101.503.013.129.032.245.06.348.027.182.047.342.061.483.012.143.02.266.02.368 0 .027.007.058.02.097.013.039.02.084.02.135v.156c-.08.85-.564 1.276-1.451 1.276-.942 0-1.426-.426-1.452-1.277v-.039c0-1.625-.605-3.004-1.815-4.138-1.184-1.16-2.622-1.74-4.316-1.74H88.07c-2.016.102-3.724.85-5.122 2.241-1.371 1.316-2.085 2.954-2.138 4.914v9.595zm40.529-11.718V66.86c0 .962-.484 1.442-1.452 1.442s-1.451-.48-1.451-1.441V48.598c0-1.655-.58-3.056-1.736-4.204-1.184-1.175-2.569-1.803-4.154-1.882v.039h-1.613v-.04h-.04c-2.072 0-3.846.733-5.325 2.203-1.452 1.415-2.206 3.15-2.259 5.205v16.943c0 .961-.483 1.442-1.452 1.442-.942 0-1.411-.48-1.411-1.442V31.978c0-.962.469-1.442 1.411-1.442.969 0 1.452.48 1.452 1.442V42.87c2.044-2.162 4.571-3.244 7.584-3.244h1.653c2.34.08 4.328.935 5.969 2.564 1.694 1.602 2.622 3.536 2.783 5.806h.041z" fill="#fff"/></svg>