<svg width="245" height="101" fill="none" xmlns="http://www.w3.org/2000/svg"><g clip-path="url(#clip0)"><path fill-rule="evenodd" clip-rule="evenodd" d="M9.752 16.538c2.087 2.688 4.409 5.608 8.143 6.373 2.177 2.68 4.175 5.76 8.196 6.658 2.205 2.715 4.265 5.964 8.287 6.943 2.825 3.48 4.75 6.854 10.302 7.468a5388.598 5388.598 0 0 0 48.271 5.11c1.773 2.411 4.4 4.343 7.252 6.114l20.154 12.48c1.278.792 3.006.792 4.292 0l20.154-12.48c2.844-1.762 5.48-3.703 7.243-6.115a4779.087 4779.087 0 0 0 48.281-5.109c5.56-.614 7.476-3.988 10.302-7.468 4.021-.98 6.082-4.228 8.286-6.943 4.013-.899 6.011-3.97 8.197-6.658 3.734-.774 6.055-3.685 8.143-6.373 3.392-.614 5.119-2.501 7.216-5.047l2.168-2.634c.441-.526.486-1.167.126-1.736-.36-.57-1.017-.9-1.782-.9h-88.579C143.859 2.155 134.312 0 122.499 0c-11.814 0-21.36 2.154-31.905 6.222H2.014c-.765 0-1.421.33-1.781.899-.36.57-.315 1.201.117 1.736l2.168 2.634c2.114 2.546 3.842 4.433 7.234 5.047zm66.725 15.426l.072.15 1.296 4.505c.998 3.444 3.005 6.16 5.73 8.224l-3.427-.356c-5.327-.56-9.744-3.257-11.679-7.459L65.86 31.35l10.617.615zm67.904-7.673l-11.373 8.144-4.724-6.133c1.782 5.44 2.564 7.771 7.738 23.437l-13.523-9.764-13.523 9.764c5.173-15.666 5.956-17.998 7.737-23.436l-4.723 6.132-11.373-8.144 16.744.027c1.062-3.24 2.529-7.762 5.138-15.755a12582.86 12582.86 0 0 1 5.137 15.755l16.745-.027zm6.523-14.705V40.67c0 4.593-.765 7.646-8.251 12.283l-18.832 11.66v-3.578L140.503 50.7c2.699-1.664 5.695-3.756 6.514-6.542.333-1.122.369-2.341.369-3.49V11.225l3.518-1.638zm-29.728 55.027l-18.822-11.66c-7.486-4.638-8.251-7.691-8.251-12.284V9.586l3.518 1.638V40.67c0 1.148.036 2.367.369 3.489.81 2.786 3.815 4.878 6.514 6.542l16.681 10.334v3.579h-.009zM95.165 7.619c8.331-3.07 17.581-4.78 27.334-4.78s19.011 1.71 27.334 4.78l-3.797 1.772c-7.468-2.457-15.44-3.712-23.537-3.712-8.098 0-16.07 1.246-23.537 3.712l-3.797-1.772zm73.356 24.345l10.617-.632-2.61 5.678c-1.934 4.202-6.352 6.899-11.678 7.46l-3.437.356c2.726-2.056 4.732-4.78 5.731-8.225l1.296-4.504.081-.133zm70.638-22.378c-1.664 2.012-2.789 3.721-6.163 3.801l-63.441 1.602-6.019 20.9c-1.305 4.54-4.769 7.548-9.555 9.212.369-1.46.45-2.937.45-4.423V9.586h84.728zm-66.266 7.45l17.446-.347-2.375 4.852c-2.132 4.361-6.766 7.183-12.344 7.512l-6.362.374 3.635-12.39zm51.871 2.787l-32.265 1.272 2.186-4.495 36.242-.712c-1.656 2.057-2.78 3.801-6.163 3.935zm-8.233 6.693l-29.404 1.807c1.656-1.3 3.041-2.866 4.076-4.655l31.5-1.246c-1.682 2.065-2.771 3.89-6.172 4.094zm-8.323 6.988l-26.821 2.242 2.15-4.681 30.853-1.843c-1.701 2.092-2.781 3.997-6.182 4.282zm-8.322 7.147l-23.484 2.6c1.593-1.372 2.88-3.018 3.779-4.896l25.895-2.163c-1.719 2.118-2.798 4.085-6.19 4.459zM5.847 9.586h84.729V40.67c0 1.486.08 2.973.459 4.424-4.796-1.656-8.26-4.673-9.564-9.213l-6.029-20.9-63.432-1.602c-3.374-.071-4.498-1.78-6.163-3.792zm66.266 7.45l3.626 12.4-6.361-.374c-5.587-.33-10.221-3.151-12.345-7.513l-2.366-4.85 17.446.338zm-51.879 2.787c-3.383-.134-4.508-1.878-6.163-3.926l36.241.712 2.187 4.495-32.265-1.281zm8.233 6.693c-3.392-.205-4.49-2.03-6.173-4.103l31.5 1.246a16.278 16.278 0 0 0 4.067 4.655l-29.394-1.798zm8.322 6.988c-3.4-.285-4.471-2.181-6.18-4.282l30.851 1.843 2.15 4.681-26.82-2.242zm8.323 7.147c-3.392-.374-4.472-2.341-6.19-4.46l25.894 2.163c.9 1.879 2.187 3.525 3.78 4.896l-23.484-2.599zm33.03 56.824c-2.916 0-3.474-1.21-3.474-3.32v-9.017c0-2.02.558-3.32 3.473-3.32 3.123 0 3.653 1.3 3.653 3.32v9.008c0 2.119-.728 3.33-3.653 3.33zm0 3.525c5.344 0 7.683-2.056 7.683-6.64v-9.426c0-4.709-2.25-6.64-7.684-6.64-5.425 0-7.503 1.931-7.503 6.64v9.417c0 4.593 2.159 6.649 7.503 6.649zM121.4 78.552v22.27h13.343v-3.64h-9.321v-5.866h7.594v-3.579h-7.594v-5.723h8.898v-3.462H121.4zm-73.563 22.243h13.037V97.03h-7.791v-.098l7.818-15.238v-3.178H48.504v3.765h7.45v.098l-8.125 15.897v2.519h.01zm149.33-22.154H183.95v3.524h4.634v18.461h3.968v-18.46h4.606V78.64h.009zm-23.735 7.236h-4.022v14.776h4.022V85.877zm-15.097 11.135h-8.602v-18.46h-4.022v22.074h12.633v-3.614h-.009zm-46.76 3.614l-4.895-8.402c2.691-.864 3.851-2.635 3.851-5.902v-1.148c0-4.673-2.519-6.622-7.909-6.622H97v22.074h3.995v-7.77h1.476l4.435 7.77h4.67zm-10.608-11.411v-7.023h1.709c3.105 0 3.653 1.086 3.653 3.178v.748c0 2.091-.809 3.097-3.707 3.097h-1.655zm74.409-10.574l-2.412 1.744.927 2.795-2.411-1.745-2.411 1.745.926-2.795-2.42-1.744h2.987c.189-.579.45-1.389.918-2.813l.918 2.813h2.978z" fill="#fff"/></g><defs><clipPath id="clip0"><path fill="#fff" d="M0 0h245v101H0z"/></clipPath></defs></svg>