<svg width="54" height="54" viewBox="0 0 54 54" fill="none" xmlns="http://www.w3.org/2000/svg"><circle cx="26.729" cy="26.729" r="26.729" fill="#fff"/><path d="M26.729 13.581c4.282 0 4.79.017 6.48.094 1.564.071 2.413.332 2.978.552.749.29 1.283.638 1.844 1.2a4.968 4.968 0 011.2 1.844c.22.565.48 1.414.552 2.977.077 1.692.094 2.199.094 6.48 0 4.283-.017 4.79-.094 6.481-.071 1.564-.332 2.413-.552 2.978a4.967 4.967 0 01-1.2 1.844 4.968 4.968 0 01-1.844 1.2c-.565.22-1.414.48-2.977.552-1.691.077-2.198.094-6.481.094-4.282 0-4.79-.017-6.48-.094-1.564-.071-2.413-.332-2.978-.552a4.968 4.968 0 01-1.844-1.2 4.969 4.969 0 01-1.2-1.844c-.22-.565-.481-1.414-.552-2.978-.077-1.69-.094-2.198-.094-6.48s.017-4.79.094-6.48c.071-1.564.332-2.413.552-2.978a4.97 4.97 0 011.2-1.844 4.968 4.968 0 011.844-1.2c.565-.22 1.414-.48 2.977-.552 1.692-.077 2.199-.094 6.481-.094zm0-2.89c-4.355 0-4.902.02-6.612.097-1.707.078-2.873.35-3.893.746a7.862 7.862 0 00-2.84 1.85 7.861 7.861 0 00-1.85 2.84c-.397 1.02-.668 2.186-.746 3.893-.078 1.71-.096 2.256-.096 6.612 0 4.355.018 4.902.096 6.612.078 1.707.35 2.873.746 3.893a7.86 7.86 0 001.85 2.84 7.859 7.859 0 002.84 1.85c1.02.397 2.186.668 3.893.746 1.71.078 2.256.096 6.612.096 4.355 0 4.902-.018 6.612-.096 1.707-.078 2.873-.35 3.893-.746a7.86 7.86 0 002.84-1.85 7.863 7.863 0 001.85-2.84c.397-1.02.668-2.186.746-3.893.078-1.71.096-2.257.096-6.612s-.018-4.902-.096-6.612c-.078-1.707-.35-2.873-.745-3.893a7.864 7.864 0 00-1.85-2.84 7.862 7.862 0 00-2.84-1.85c-1.021-.397-2.187-.668-3.894-.746-1.71-.078-2.257-.096-6.612-.096z" fill="#000"/><path d="M26.736 18.501a8.235 8.235 0 100 16.47 8.235 8.235 0 000-16.47zm0 13.581a5.346 5.346 0 110-10.691 5.346 5.346 0 010 10.691zM37.221 18.17a1.925 1.925 0 11-3.849 0 1.925 1.925 0 013.85 0z" fill="#000"/></svg>