<svg width="197" height="197" viewBox="0 0 197 197" fill="none" xmlns="http://www.w3.org/2000/svg"><path stroke="#F37232" d="M.5.5h196v196H.5z"/><path fill-rule="evenodd" clip-rule="evenodd" d="M7.848 75.608c1.678 2.05 3.545 4.275 6.547 4.859 1.75 2.043 3.357 4.39 6.59 5.076 1.773 2.07 3.43 4.546 6.663 5.293 2.272 2.653 3.82 5.225 8.283 5.693a4545.024 4545.024 0 0038.812 3.895c1.425 1.839 3.538 3.312 5.83 4.662L96.78 114.6c1.027.604 2.416.604 3.45 0l16.205-9.514c2.286-1.343 4.406-2.823 5.824-4.662a4033.268 4033.268 0 0038.819-3.895c4.47-.468 6.011-3.04 8.283-5.693 3.233-.746 4.89-3.223 6.662-5.293 3.227-.686 4.833-3.027 6.591-5.076 3.002-.59 4.869-2.81 6.547-4.859 2.727-.468 4.116-1.907 5.802-3.847l1.743-2.009c.355-.4.391-.889.101-1.323-.289-.435-.817-.686-1.432-.686h-71.221C115.674 64.643 107.999 63 98.5 63c-9.498 0-17.174 1.642-25.652 4.743H1.627c-.615 0-1.143.251-1.433.686-.29.434-.253.916.094 1.323l1.744 2.009c1.7 1.94 3.089 3.379 5.816 3.847zm53.65 11.76l.057.116 1.042 3.433c.803 2.626 2.416 4.696 4.608 6.27l-2.756-.27c-4.283-.428-7.835-2.485-9.39-5.688L52.96 86.9l8.536.468zm54.596-5.85l-9.144 6.21-3.798-4.676c1.432 4.147 2.062 5.925 6.221 17.868L98.5 93.476l-10.873 7.444c4.16-11.943 4.79-13.721 6.222-17.868l-3.798 4.676-9.144-6.21 13.463.021c.853-2.47 2.032-5.917 4.13-12.01 2.098 6.093 3.285 9.54 4.131 12.01l13.463-.02zm5.245-11.21v23.697c0 3.502-.615 5.83-6.634 9.365l-15.141 8.889v-2.728l13.412-7.878c2.17-1.269 4.579-2.864 5.238-4.988.267-.855.296-1.785.296-2.66V71.557l2.829-1.249zM97.437 112.26l-15.134-8.889c-6.019-3.536-6.634-5.864-6.634-9.365V70.308l2.829 1.25v22.447c0 .875.029 1.805.296 2.66.651 2.124 3.068 3.719 5.238 4.988l13.412 7.878v2.728h-.007zM76.523 68.81c6.699-2.341 14.135-3.644 21.977-3.644 7.842 0 15.286 1.303 21.978 3.644l-3.053 1.35c-6.004-1.873-12.414-2.83-18.925-2.83-6.51 0-12.92.95-18.924 2.83l-3.053-1.35zm58.98 18.56l8.537-.483-2.098 4.33c-1.555 3.203-5.107 5.259-9.39 5.687l-2.764.271c2.192-1.568 3.806-3.644 4.609-6.27l1.041-3.434.065-.102zM192.3 70.31c-1.339 1.533-2.243 2.836-4.956 2.897l-51.009 1.221-4.839 15.934c-1.049 3.46-3.834 5.754-7.683 7.023.297-1.113.362-2.239.362-3.372V70.308H192.3zm-53.281 5.68l14.028-.265-1.91 3.698c-1.715 3.325-5.44 5.476-9.926 5.727l-5.114.285 2.922-9.446zm41.706 2.123l-25.942.97 1.758-3.426 29.139-.543c-1.331 1.567-2.235 2.897-4.955 3zm-6.62 5.103l-23.641 1.378c1.331-.99 2.445-2.185 3.277-3.55l25.327-.95c-1.353 1.575-2.228 2.966-4.963 3.122zm-6.691 5.327l-21.566 1.71 1.729-3.57 24.807-1.404c-1.368 1.595-2.236 3.047-4.97 3.264zm-6.692 5.45l-18.881 1.98c1.28-1.044 2.315-2.3 3.038-3.731l20.82-1.65c-1.382 1.616-2.25 3.115-4.977 3.4zM4.708 70.307h68.125v23.697c0 1.133.065 2.266.37 3.373-3.857-1.263-6.642-3.563-7.69-7.024L60.665 74.42 9.664 73.198c-2.713-.054-3.617-1.357-4.956-2.89zm53.28 5.68l2.916 9.453-5.115-.285c-4.492-.251-8.218-2.402-9.925-5.727l-1.903-3.699 14.028.258zm-41.712 2.124c-2.72-.102-3.624-1.432-4.956-2.992l29.14.543 1.758 3.427-25.942-.978zm6.62 5.103c-2.728-.156-3.61-1.547-4.963-3.128l25.327.95c.832 1.364 1.938 2.558 3.27 3.55l-23.635-1.372zm6.69 5.327c-2.734-.217-3.595-1.662-4.969-3.264l24.806 1.405 1.73 3.57-21.566-1.71zm6.693 5.45c-2.728-.286-3.596-1.785-4.978-3.4l20.82 1.649c.724 1.431 1.758 2.687 3.039 3.732L36.279 93.99zm26.556 43.321c-2.343 0-2.792-.923-2.792-2.531v-6.875c0-1.54.449-2.531 2.793-2.531 2.51 0 2.937.991 2.937 2.531v6.868c0 1.615-.586 2.538-2.937 2.538zm0 2.687c4.298 0 6.178-1.568 6.178-5.062v-7.187c0-3.589-1.808-5.062-6.178-5.062-4.362 0-6.033 1.473-6.033 5.062v7.18c0 3.501 1.736 5.069 6.034 5.069zm34.783-17.114v16.978h10.728v-2.775h-7.495v-4.472h6.106v-2.728h-6.106v-4.363h7.155v-2.64H97.618zM38.47 139.844h10.482v-2.871h-6.265v-.074l6.287-11.618v-2.422h-9.97v2.87h5.99v.075l-6.532 12.12v1.92h.008zm120.066-16.89H147.91v2.687h3.726v14.074h3.19v-14.074h3.704v-2.687h.007zm-19.084 5.517h-3.233v11.264h3.233v-11.264zm-12.139 8.489h-6.916v-14.074h-3.233v16.829h10.157v-2.755h-.008zm-37.596 2.755l-3.936-6.406c2.164-.658 3.097-2.009 3.097-4.499v-.875c0-3.563-2.026-5.049-6.36-5.049H78v16.829h3.212v-5.924h1.186l3.566 5.924h3.755zm-8.53-8.7v-5.354h1.375c2.496 0 2.937.828 2.937 2.423v.57c0 1.595-.65 2.361-2.98 2.361h-1.331zm59.828-8.061l-1.939 1.33.745 2.131-1.938-1.33-1.939 1.33.745-2.131-1.946-1.33h2.402c.152-.441.361-1.059.738-2.145l.737 2.145h2.395z" fill="#333"/></svg>