<svg width="54" height="54" viewBox="0 0 54 54" fill="none" xmlns="http://www.w3.org/2000/svg"><circle cx="27.187" cy="26.729" r="26.729" fill="#fff"/><path fill-rule="evenodd" clip-rule="evenodd" d="M43.224 16.45a13.14 13.14 0 01-3.779 1.036 6.597 6.597 0 002.893-3.64 13.177 13.177 0 01-4.178 1.597 6.577 6.577 0 00-4.803-2.079 6.58 6.58 0 00-6.41 8.08c-5.47-.273-10.317-2.893-13.563-6.875a6.546 6.546 0 00-.89 3.308 6.574 6.574 0 002.927 5.477 6.56 6.56 0 01-2.982-.823v.082c0 3.19 2.27 5.848 5.278 6.454a6.617 6.617 0 01-2.972.113 6.589 6.589 0 006.147 4.57 13.206 13.206 0 01-8.172 2.817c-.532 0-1.056-.031-1.57-.093a18.629 18.629 0 0010.086 2.957c12.104 0 18.722-10.027 18.722-18.722 0-.285-.005-.57-.02-.85a13.402 13.402 0 003.286-3.41z" fill="#000"/></svg>